<svg width="1440" height="900" viewBox="0 0 1440 900" fill="none" xmlns="http://www.w3.org/2000/svg">
  <rect width="1440" height="900" fill="#0A1628"/>
  <g opacity="0.15">
    <circle cx="1200" cy="200" r="300" fill="#4F46E5"/>
    <circle cx="200" cy="700" r="250" fill="#1D4ED8"/>
    <circle cx="800" cy="450" r="200" fill="#818CF8"/>
    <path d="M0 600 Q 360 400 720 550 T 1440 500 L 1440 900 L 0 900 Z" fill="#1D4ED8"/>
  </g>
  <g stroke="#4F46E5" stroke-width="0.5" opacity="0.08">
    <line x1="0" y1="100" x2="1440" y2="100"/>
    <line x1="0" y1="200" x2="1440" y2="200"/>
    <line x1="0" y1="300" x2="1440" y2="300"/>
    <line x1="0" y1="400" x2="1440" y2="400"/>
    <line x1="0" y1="500" x2="1440" y2="500"/>
    <line x1="0" y1="600" x2="1440" y2="600"/>
    <line x1="0" y1="700" x2="1440" y2="700"/>
    <line x1="0" y1="800" x2="1440" y2="800"/>
    <line x1="200" y1="0" x2="200" y2="900"/>
    <line x1="400" y1="0" x2="400" y2="900"/>
    <line x1="600" y1="0" x2="600" y2="900"/>
    <line x1="800" y1="0" x2="800" y2="900"/>
    <line x1="1000" y1="0" x2="1000" y2="900"/>
    <line x1="1200" y1="0" x2="1200" y2="900"/>
  </g>
</svg>
